<svg width="12" height="8" viewBox="0 0 12 8" fill="none" xmlns="http://www.w3.org/2000/svg">
<path fill-rule="evenodd" clip-rule="evenodd" d="M6 0C8.39947 0 10.3163 1.18924 11.6972 3.47649L11.8251 3.69414L12 4L11.8251 4.30586C10.4356 6.73527 8.47445 8 6 8C3.60053 8 1.68369 6.81076 0.302814 4.52351L0.174929 4.30586L0 4L0.174929 3.69414C1.56436 1.26473 3.52555 0 6 0ZM6.00004 1.33335C4.30257 1.33335 2.91796 2.12515 1.80784 3.81547L1.68994 4.00002L1.80784 4.18457C2.91796 5.87488 4.30257 6.66668 6.00004 6.66668C7.75813 6.66668 9.18061 5.81731 10.3101 4.00002C9.18061 2.18272 7.75813 1.33335 6.00004 1.33335ZM6 2.66667C6.82843 2.66667 7.5 3.26363 7.5 4.00001C7.5 4.73639 6.82843 5.33334 6 5.33334C5.17157 5.33334 4.5 4.73639 4.5 4.00001C4.5 3.26363 5.17157 2.66667 6 2.66667Z" fill="#333333"/>
</svg>
