<svg width="60" height="60" viewBox="0 0 140 140" fill="none" xmlns="http://www.w3.org/2000/svg">
<path d="M0 70C0 39.3168 0 23.9753 8.47428 13.6493C10.0256 11.759 11.759 10.0256 13.6493 8.47428C23.9753 0 39.3168 0 70 0C100.683 0 116.025 0 126.351 8.47428C128.241 10.0256 129.974 11.759 131.526 13.6493C140 23.9753 140 39.3168 140 70C140 100.683 140 116.025 131.526 126.351C129.974 128.241 128.241 129.974 126.351 131.526C116.025 140 100.683 140 70 140C39.3168 140 23.9753 140 13.6493 131.526C11.759 129.974 10.0256 128.241 8.47428 126.351C0 116.025 0 100.683 0 70Z" fill="#333333"/>
<path fill-rule="evenodd" clip-rule="evenodd" d="M75.1159 43.6163C71.9866 41.8098 68.1313 41.8098 65.0022 43.6163L41.3327 57.2819C38.2036 59.0885 36.2759 62.4272 36.2759 66.0406V93.3718C36.2759 96.9852 38.2036 100.324 41.3327 102.131L65.0022 115.796C68.1315 117.603 71.9866 117.603 75.1159 115.796L98.7855 102.131C101.915 100.324 103.842 96.9849 103.842 93.3718V66.0406C103.842 62.4272 101.915 59.0885 98.7855 57.2819L75.1159 43.6163ZM72.467 64.2405C70.9769 63.3804 69.141 63.3804 67.6512 64.2405L55.4614 71.2782V85.3536C55.4614 87.0743 56.3793 88.664 57.8694 89.5244L67.6512 95.172C69.141 96.0321 70.9769 96.0321 72.467 95.172L82.2487 89.5244C83.7388 88.664 84.6567 87.0743 84.6567 85.3536V74.0589C84.6567 72.3382 83.7388 70.7484 82.2487 69.8881L72.467 64.2405Z" fill="#FFD600"/>
<path d="M51.6558 73.4623L50.2172 52.1464L64.8573 43.7046L67.3404 64.4122L51.6558 73.4623Z" fill="url(#paint0_linear_118_198)"/>
<path d="M36.2757 25.6543C36.2757 23.8015 38.2806 22.6428 39.8859 23.5679L51.6046 30.3212C53.9917 31.6968 55.4627 34.2424 55.4627 36.9974V91.5187L36.2757 92.7226V25.6543Z" fill="#C4C4C4"/>
<path d="M36.2757 25.6543C36.2757 23.8015 38.2806 22.6428 39.8859 23.5679L51.6046 30.3212C53.9917 31.6968 55.4627 34.2424 55.4627 36.9974V91.5187L36.2757 92.7226V25.6543Z" fill="url(#paint1_linear_118_198)"/>
<defs>
<linearGradient id="paint0_linear_118_198" x1="44.2455" y1="66.236" x2="65.6416" y2="55.5381" gradientUnits="userSpaceOnUse">
<stop stop-color="#FFB600"/>
<stop offset="1" stop-color="#FFD600"/>
</linearGradient>
<linearGradient id="paint1_linear_118_198" x1="50.6099" y1="45.2826" x2="38.8526" y2="88.8016" gradientUnits="userSpaceOnUse">
<stop stop-color="#FFED8F"/>
<stop offset="0.5279" stop-color="#FFE456"/>
<stop offset="1" stop-color="#FFD600"/>
</linearGradient>
</defs>
</svg>
