<svg width="20" height="20" viewBox="0 0 20 20" fill="none" xmlns="http://www.w3.org/2000/svg">
<path fill-rule="evenodd" clip-rule="evenodd" d="M9.16663 1.66666C13.3088 1.66666 16.6666 5.02452 16.6666 9.16666C16.6666 10.9373 16.053 12.5646 15.0269 13.8476L18.0892 16.9107C18.4147 17.2362 18.4147 17.7638 18.0892 18.0892C17.7888 18.3897 17.3161 18.4128 16.9892 18.1586L16.9107 18.0892L13.8476 15.0269C12.5646 16.0531 10.9373 16.6667 9.16663 16.6667C5.02449 16.6667 1.66663 13.3088 1.66663 9.16666C1.66663 5.02452 5.02449 1.66666 9.16663 1.66666ZM9.16663 3.33332C5.94496 3.33332 3.33329 5.945 3.33329 9.16666C3.33329 12.3883 5.94496 15 9.16663 15C12.3883 15 15 12.3883 15 9.16666C15 5.945 12.3883 3.33332 9.16663 3.33332Z" fill="#333333"/>
</svg>
